<svg width="167" height="56" viewBox="0 0 167 56" fill="none" xmlns="http://www.w3.org/2000/svg">
<g clip-path="url(#clip0_409_2347)">
<path d="M153.701 5.23003e-05H13.3063C12.7946 5.23003e-05 12.289 5.23004e-05 11.7786 0.0028523C11.3513 0.0056523 10.9275 0.0137863 10.4961 0.0206323C9.559 0.0316948 8.62409 0.114399 7.69952 0.268026C6.77624 0.424998 5.88189 0.720934 5.0467 1.14583C4.21254 1.57431 3.45034 2.13109 2.78776 2.79595C2.12169 3.45894 1.56648 4.22528 1.14346 5.06548C0.719279 5.90401 0.425148 6.80257 0.27123 7.73013C0.115848 8.65651 0.0322355 9.59358 0.0211429 10.5329C0.00819202 10.9622 0.00682435 11.3928 0 11.8221V44.1821C0.00682435 44.6168 0.00819202 45.0379 0.0211429 45.4728C0.0322389 46.4121 0.115851 47.3491 0.27123 48.2754C0.424723 49.2035 0.718871 50.1026 1.14346 50.9414C1.56629 51.7789 2.12158 52.5421 2.78776 53.2015C3.44783 53.8693 4.21052 54.4264 5.0467 54.8516C5.88188 55.2777 6.77614 55.5754 7.69952 55.7348C8.62425 55.8872 9.55906 55.9699 10.4961 55.9823C10.9275 55.9918 11.3513 55.9973 11.7786 55.9973C12.289 56.0001 12.7946 56.0001 13.3063 56.0001H153.701C154.203 56.0001 154.712 56.0001 155.214 55.9973C155.639 55.9973 156.075 55.9918 156.501 55.9823C157.436 55.9706 158.369 55.8878 159.292 55.7348C160.218 55.5742 161.116 55.2766 161.955 54.8516C162.79 54.4262 163.552 53.869 164.212 53.2015C164.876 52.5396 165.433 51.7769 165.861 50.9414C166.282 50.102 166.573 49.203 166.725 48.2754C166.88 47.3489 166.967 46.4121 166.984 45.4728C166.989 45.0379 166.989 44.6168 166.989 44.1821C167 43.6735 167 43.1677 167 42.6508V13.3506C167 12.8379 167 12.3293 166.989 11.8221C166.989 11.3928 166.989 10.9622 166.984 10.5329C166.967 9.59344 166.88 8.65658 166.725 7.73007C166.573 6.80305 166.282 5.90456 165.861 5.06542C164.999 3.38133 163.633 2.01049 161.955 1.1457C161.116 0.721847 160.218 0.425989 159.292 0.2679C158.369 0.113596 157.436 0.0308632 156.501 0.0204363C156.075 0.0136043 155.639 0.0054003 155.214 0.0026703C154.712 -0.0001297 154.203 -0.0001297 153.701 -0.0001297V5.23003e-05Z" fill="#A6A6A6"/>
<path d="M11.7854 54.775C11.3602 54.775 10.9453 54.7695 10.5234 54.76C9.64948 54.7486 8.77759 54.6723 7.91489 54.5317C7.11047 54.3927 6.3312 54.1342 5.60279 53.7646C4.88105 53.3981 4.22278 52.9176 3.65317 52.3414C3.07532 51.772 2.59423 51.1115 2.22897 50.3863C1.85969 49.6563 1.60412 48.8739 1.47118 48.0662C1.32761 47.1984 1.24993 46.3208 1.23882 45.4412C1.22997 45.1459 1.21838 44.1629 1.21838 44.1629V11.8221C1.21838 11.8221 1.23072 10.8541 1.23888 10.5697C1.24953 9.69147 1.32675 8.81531 1.46989 7.94882C1.60309 7.13895 1.85885 6.35425 2.22833 5.62188C2.59225 4.89712 3.07067 4.2362 3.64503 3.66475C4.21876 3.08787 4.87914 2.60484 5.6021 2.23329C6.32884 1.86493 7.10664 1.60822 7.90943 1.47178C8.77496 1.32977 9.64988 1.25299 10.5268 1.24209L11.7861 1.225H155.207L156.481 1.24278C157.35 1.25314 158.217 1.32923 159.075 1.4704C159.886 1.60856 160.672 1.86706 161.407 2.23739C162.855 2.98618 164.034 4.17083 164.777 5.6253C165.141 6.35261 165.393 7.13091 165.524 7.93378C165.669 8.80739 165.75 9.69043 165.767 10.5759C165.771 10.9724 165.771 11.3982 165.771 11.8221C165.782 12.3471 165.782 12.8468 165.782 13.3506V42.6507C165.782 43.1593 165.782 43.6556 165.771 44.156C165.771 44.6113 165.771 45.0283 165.765 45.4576C165.749 46.3272 165.669 47.1945 165.527 48.0525C165.396 48.866 165.142 49.6545 164.773 50.3905C164.405 51.1079 163.927 51.7626 163.356 52.3305C162.786 52.9098 162.126 53.3931 161.403 53.762C160.67 54.1343 159.885 54.3938 159.075 54.5317C158.212 54.673 157.34 54.7493 156.466 54.76C156.058 54.7695 155.63 54.775 155.214 54.775L153.701 54.7778L11.7854 54.775Z" fill="black"/>
<path d="M34.5669 28.421C34.5819 27.2524 34.8913 26.1067 35.4663 25.0904C36.0413 24.074 36.8633 23.2201 37.8556 22.6081C37.2252 21.7049 36.3935 20.9615 35.4266 20.4372C34.4597 19.9128 33.3843 19.6218 32.2857 19.5873C29.9422 19.3406 27.6703 20.9941 26.4761 20.9941C25.2587 20.9941 23.4201 19.6118 21.4401 19.6527C20.1594 19.6942 18.9113 20.0678 17.8174 20.7371C16.7234 21.4064 15.8209 22.3485 15.1978 23.4717C12.4988 28.1595 14.512 35.049 17.0975 38.8382C18.391 40.6937 19.9028 42.7663 21.881 42.6928C23.8167 42.6123 24.5397 41.4546 26.8763 41.4546C29.1912 41.4546 29.8695 42.6928 31.8878 42.6461C33.965 42.6123 35.2737 40.7824 36.5218 38.9093C37.4513 37.5872 38.1664 36.126 38.6409 34.5798C37.4341 34.0678 36.4043 33.2107 35.6798 32.1155C34.9554 31.0203 34.5683 29.7354 34.5669 28.421Z" fill="white"/>
<path d="M30.7549 17.0953C31.8874 15.7314 32.4454 13.9784 32.3103 12.2084C30.58 12.3907 28.9817 13.2203 27.8338 14.5319C27.2726 15.1726 26.8428 15.918 26.5689 16.7255C26.295 17.533 26.1825 18.3867 26.2377 19.2378C27.1032 19.2468 27.9594 19.0586 28.7418 18.6875C29.5243 18.3164 30.2126 17.772 30.7549 17.0953Z" fill="white"/>
<path d="M59.0359 37.9955H52.4301L50.8437 42.6946H48.0458L54.3027 25.3094H57.2097L63.4666 42.6946H60.6209L59.0359 37.9955ZM53.1143 35.8272H58.3504L55.7692 28.201H55.6969L53.1143 35.8272Z" fill="white"/>
<path d="M76.9794 36.3577C76.9794 40.2966 74.8779 42.8272 71.7065 42.8272C70.9031 42.8694 70.1041 42.6837 69.4011 42.2915C68.698 41.8993 68.1192 41.3165 67.731 40.6096H67.671V46.8878H65.0775V30.0194H67.5879V32.1276H67.6356C68.0416 31.4242 68.6302 30.8443 69.3386 30.4497C70.0471 30.0551 70.8489 29.8606 71.6588 29.8868C74.8655 29.8868 76.9794 32.4298 76.9794 36.3577ZM74.3136 36.3577C74.3136 33.7915 72.9916 32.1044 70.9746 32.1044C68.993 32.1044 67.6601 33.827 67.6601 36.3577C67.6601 38.9116 68.993 40.622 70.9746 40.622C72.9917 40.622 74.3136 38.9471 74.3136 36.3577Z" fill="white"/>
<path d="M90.8861 36.3577C90.8861 40.2966 88.7845 42.8272 85.6131 42.8272C84.8098 42.8694 84.0108 42.6837 83.3077 42.2915C82.6047 41.8993 82.0259 41.3164 81.6377 40.6096H81.5777V46.8877H78.9841V30.0194H81.4945V32.1276H81.5422C81.9483 31.4241 82.5368 30.8443 83.2453 30.4497C83.9537 30.0551 84.7555 29.8606 85.5654 29.8868C88.7723 29.8868 90.8861 32.4297 90.8861 36.3577ZM88.2203 36.3577C88.2203 33.7915 86.8983 32.1044 84.8813 32.1044C82.8997 32.1044 81.5668 33.827 81.5668 36.3577C81.5668 38.9116 82.8997 40.6219 84.8813 40.6219C86.8983 40.6219 88.2203 38.9471 88.2203 36.3577H88.2203Z" fill="white"/>
<path d="M100.077 37.8506C100.269 39.5747 101.939 40.7066 104.22 40.7066C106.406 40.7066 107.979 39.5746 107.979 38.0201C107.979 36.6707 107.031 35.8627 104.785 35.309L102.539 34.7662C99.3563 33.9951 97.8789 32.5021 97.8789 30.0795C97.8789 27.0799 100.485 25.0195 104.185 25.0195C107.847 25.0195 110.357 27.0799 110.442 30.0795H107.824C107.667 28.3445 106.237 27.2972 104.148 27.2972C102.059 27.2972 100.629 28.3568 100.629 29.899C100.629 31.1281 101.542 31.8513 103.776 32.405L105.685 32.8753C109.241 33.7189 110.718 35.1517 110.718 37.6947C110.718 40.9472 108.136 42.9843 104.028 42.9843C100.185 42.9843 97.59 40.995 97.4223 37.8505L100.077 37.8506Z" fill="white"/>
<path d="M116.316 27.0197V30.0193H118.718V32.0797H116.316V39.0674C116.316 40.1529 116.797 40.6588 117.853 40.6588C118.138 40.6538 118.423 40.6337 118.706 40.5986V42.6466C118.231 42.7357 117.749 42.776 117.266 42.767C114.708 42.767 113.71 41.8031 113.71 39.3449V32.0797H111.873V30.0193H113.71V27.0197H116.316Z" fill="white"/>
<path d="M120.11 36.3576C120.11 32.3695 122.451 29.8635 126.103 29.8635C129.766 29.8635 132.096 32.3695 132.096 36.3576C132.096 40.3567 129.778 42.8518 126.103 42.8518C122.428 42.8518 120.11 40.3566 120.11 36.3576ZM129.454 36.3576C129.454 33.6219 128.204 32.0072 126.102 32.0072C124.001 32.0072 122.753 33.6342 122.753 36.3576C122.753 39.1043 124.001 40.7066 126.102 40.7066C128.204 40.7066 129.454 39.1043 129.454 36.3576H129.454Z" fill="white"/>
<path d="M134.235 30.0193H136.708V32.1767H136.768C136.936 31.5029 137.329 30.9075 137.883 30.4904C138.436 30.0734 139.116 29.8602 139.807 29.8867C140.106 29.8856 140.404 29.9182 140.696 29.9838V32.4174C140.319 32.3017 139.925 32.2486 139.531 32.2601C139.154 32.2448 138.778 32.3115 138.43 32.4555C138.081 32.5995 137.768 32.8176 137.511 33.0946C137.254 33.3717 137.06 33.7012 136.942 34.0605C136.824 34.4198 136.786 34.8005 136.828 35.1763V42.6945H134.235L134.235 30.0193Z" fill="white"/>
<path d="M152.654 38.9717C152.305 41.2727 150.071 42.8518 147.213 42.8518C143.538 42.8518 141.256 40.3812 141.256 36.4178C141.256 32.442 143.55 29.8635 147.104 29.8635C150.6 29.8635 152.798 32.2725 152.798 36.1156V37.007H143.874V37.1643C143.833 37.6307 143.891 38.1007 144.045 38.5428C144.199 38.985 144.445 39.3893 144.766 39.7289C145.088 40.0685 145.477 40.3355 145.91 40.5123C146.342 40.6892 146.807 40.7717 147.273 40.7545C147.886 40.8121 148.501 40.6697 149.027 40.3485C149.553 40.0273 149.961 39.5444 150.191 38.9717L152.654 38.9717ZM143.886 35.1887H150.203C150.227 34.7692 150.163 34.3495 150.017 33.9558C149.871 33.5621 149.645 33.203 149.354 32.9009C149.063 32.5988 148.713 32.3603 148.326 32.2004C147.939 32.0405 147.523 31.9627 147.104 31.9717C146.682 31.9692 146.263 32.0506 145.872 32.2112C145.482 32.3718 145.126 32.6085 144.827 32.9076C144.528 33.2067 144.291 33.5623 144.129 33.9538C143.968 34.3453 143.885 34.765 143.886 35.1887V35.1887Z" fill="white"/>
<path d="M52.7892 12.2234C53.3329 12.1843 53.8786 12.2667 54.3867 12.4647C54.8948 12.6627 55.3529 12.9714 55.7277 13.3684C56.1025 13.7655 56.3848 14.2411 56.5543 14.7609C56.7237 15.2806 56.776 15.8317 56.7074 16.3742C56.7074 19.0429 55.2696 20.577 52.7892 20.577H49.7814V12.2234H52.7892ZM51.0747 19.3956H52.6447C53.0333 19.4189 53.4221 19.355 53.7829 19.2085C54.1437 19.0621 54.4674 18.8368 54.7305 18.549C54.9935 18.2612 55.1893 17.9182 55.3036 17.5449C55.4178 17.1716 55.4476 16.7775 55.3909 16.3912C55.4435 16.0064 55.4107 15.6148 55.2947 15.2442C55.1787 14.8737 54.9824 14.5335 54.72 14.248C54.4575 13.9625 54.1353 13.7388 53.7766 13.5928C53.4178 13.4469 53.0313 13.3824 52.6447 13.4039H51.0747V19.3956Z" fill="white"/>
<path d="M58.1683 17.4221C58.1287 17.0079 58.176 16.5899 58.307 16.195C58.4379 15.8001 58.6497 15.437 58.9287 15.129C59.2078 14.821 59.5479 14.575 59.9273 14.4066C60.3067 14.2382 60.7169 14.1512 61.1318 14.1512C61.5467 14.1512 61.957 14.2382 62.3363 14.4066C62.7157 14.575 63.0558 14.821 63.3349 15.129C63.6139 15.437 63.8257 15.8001 63.9567 16.195C64.0876 16.5899 64.1349 17.0079 64.0954 17.4221C64.1356 17.8369 64.0889 18.2554 63.9583 18.651C63.8277 19.0465 63.616 19.4102 63.3369 19.7188C63.0578 20.0274 62.7175 20.274 62.3377 20.4427C61.9579 20.6115 61.5472 20.6987 61.1318 20.6987C60.7164 20.6987 60.3057 20.6115 59.9259 20.4427C59.5462 20.274 59.2058 20.0274 58.9267 19.7188C58.6476 19.4102 58.4359 19.0465 58.3053 18.651C58.1747 18.2554 58.128 17.8369 58.1683 17.4221ZM62.8197 17.4221C62.8197 16.0556 62.2078 15.2565 61.1338 15.2565C60.0558 15.2565 59.4494 16.0556 59.4494 17.4222C59.4494 18.7996 60.0559 19.5926 61.1338 19.5926C62.2078 19.5925 62.8197 18.7941 62.8197 17.4221H62.8197Z" fill="white"/>
<path d="M71.9743 20.5769H70.6877L69.3889 15.9339H69.2908L67.9974 20.5769H66.7231L64.9909 14.2728H66.2489L67.3746 19.0832H67.4673L68.7593 14.2728H69.949L71.241 19.0832H71.3392L72.4594 14.2728H73.6996L71.9743 20.5769Z" fill="white"/>
<path d="M75.1566 14.2728H76.3504V15.2743H76.4431C76.6003 14.9146 76.8655 14.613 77.2016 14.4117C77.5378 14.2104 77.9282 14.1193 78.3184 14.1511C78.6242 14.128 78.9312 14.1743 79.2167 14.2864C79.5023 14.3986 79.759 14.5737 79.9679 14.7989C80.1768 15.0241 80.3325 15.2935 80.4235 15.5873C80.5145 15.881 80.5384 16.1915 80.4935 16.4958V20.5768H79.2533V16.8082C79.2533 15.7952 78.8145 15.2913 77.8973 15.2913C77.6897 15.2816 77.4824 15.3171 77.2898 15.3953C77.0971 15.4734 76.9235 15.5924 76.781 15.7442C76.6385 15.8959 76.5304 16.0768 76.464 16.2744C76.3977 16.472 76.3748 16.6816 76.3967 16.8889V20.5769H75.1565L75.1566 14.2728Z" fill="white"/>
<path d="M82.4697 11.8118H83.7099V20.5768H82.4697V11.8118Z" fill="white"/>
<path d="M85.4337 17.4221C85.3942 17.0078 85.4415 16.5898 85.5725 16.1949C85.7035 15.8 85.9153 15.4369 86.1944 15.1289C86.4734 14.8209 86.8136 14.5748 87.193 14.4064C87.5724 14.238 87.9827 14.1511 88.3976 14.1511C88.8125 14.1511 89.2228 14.238 89.6022 14.4064C89.9816 14.5748 90.3218 14.8209 90.6008 15.1289C90.8799 15.4369 91.0917 15.8 91.2227 16.1949C91.3537 16.5898 91.401 17.0078 91.3615 17.4221C91.4017 17.8368 91.355 18.2554 91.2243 18.6509C91.0937 19.0465 90.882 19.4102 90.6028 19.7188C90.3237 20.0274 89.9833 20.2739 89.6035 20.4427C89.2237 20.6114 88.813 20.6986 88.3976 20.6986C87.9822 20.6986 87.5715 20.6114 87.1917 20.4427C86.8119 20.2739 86.4715 20.0274 86.1924 19.7188C85.9132 19.4102 85.7015 19.0465 85.5709 18.6509C85.4402 18.2554 85.3935 17.8368 85.4337 17.4221ZM90.0851 17.4221C90.0851 16.0556 89.4732 15.2565 88.3993 15.2565C87.3213 15.2565 86.7148 16.0556 86.7148 17.4221C86.7148 18.7996 87.3213 19.5925 88.3993 19.5925C89.4732 19.5925 90.0852 18.7941 90.0852 17.4221H90.0851Z" fill="white"/>
<path d="M92.6673 18.7941C92.6673 17.6593 93.5096 17.0051 95.0046 16.9121L96.7068 16.8137V16.2695C96.7068 15.6037 96.268 15.2277 95.4203 15.2277C94.728 15.2277 94.2482 15.4827 94.1106 15.9284H92.9099C93.0366 14.8456 94.052 14.1511 95.4775 14.1511C97.053 14.1511 97.9416 14.9379 97.9416 16.2695V20.5769H96.7477V19.6909H96.6496C96.4504 20.0087 96.1708 20.2678 95.8391 20.4417C95.5075 20.6156 95.1358 20.6981 94.762 20.6807C94.4982 20.7083 94.2316 20.68 93.9793 20.5979C93.7271 20.5157 93.4948 20.3814 93.2974 20.2036C93.1 20.0259 92.942 19.8086 92.8335 19.5658C92.725 19.323 92.6684 19.0601 92.6673 18.7941ZM96.7068 18.2554V17.7283L95.1723 17.8268C94.3068 17.8849 93.9143 18.1802 93.9143 18.7359C93.9143 19.3033 94.4049 19.6335 95.0796 19.6335C95.2773 19.6536 95.477 19.6335 95.6668 19.5746C95.8566 19.5157 96.0326 19.4191 96.1845 19.2905C96.3363 19.1619 96.4608 19.004 96.5505 18.8262C96.6402 18.6484 96.6934 18.4542 96.7068 18.2554Z" fill="white"/>
<path d="M99.5716 17.4221C99.5716 15.4301 100.592 14.1682 102.18 14.1682C102.573 14.15 102.963 14.2444 103.304 14.4402C103.645 14.6361 103.924 14.9253 104.107 15.2742H104.2V11.8118H105.44V20.5768H104.252V19.5808H104.154C103.956 19.9273 103.668 20.213 103.32 20.4069C102.972 20.6007 102.578 20.6954 102.18 20.6807C100.581 20.6808 99.5716 19.4189 99.5716 17.4221ZM100.853 17.4221C100.853 18.7592 101.481 19.5638 102.532 19.5638C103.577 19.5638 104.223 18.7476 104.223 17.4276C104.223 16.1137 103.57 15.2859 102.532 15.2859C101.488 15.2859 100.853 16.0959 100.853 17.4221H100.853Z" fill="white"/>
<path d="M110.571 17.4221C110.532 17.0079 110.579 16.5899 110.71 16.195C110.841 15.8001 111.053 15.437 111.332 15.129C111.611 14.821 111.951 14.575 112.33 14.4066C112.709 14.2382 113.12 14.1512 113.535 14.1512C113.949 14.1512 114.36 14.2382 114.739 14.4066C115.119 14.575 115.459 14.821 115.738 15.129C116.017 15.437 116.229 15.8001 116.359 16.195C116.49 16.5899 116.538 17.0079 116.498 17.4221C116.538 17.8369 116.492 18.2554 116.361 18.651C116.231 19.0465 116.019 19.4102 115.74 19.7188C115.461 20.0274 115.12 20.274 114.741 20.4427C114.361 20.6115 113.95 20.6987 113.535 20.6987C113.119 20.6987 112.709 20.6115 112.329 20.4427C111.949 20.274 111.609 20.0274 111.33 19.7188C111.05 19.4102 110.839 19.0465 110.708 18.651C110.578 18.2554 110.531 17.8369 110.571 17.4221ZM115.223 17.4221C115.223 16.0556 114.611 15.2565 113.537 15.2565C112.459 15.2565 111.852 16.0556 111.852 17.4222C111.852 18.7996 112.459 19.5926 113.537 19.5926C114.611 19.5925 115.223 18.7941 115.223 17.4221Z" fill="white"/>
<path d="M118.162 14.2728H119.356V15.2743H119.449C119.606 14.9146 119.871 14.613 120.207 14.4117C120.544 14.2104 120.934 14.1193 121.324 14.1511C121.63 14.128 121.937 14.1743 122.223 14.2864C122.508 14.3986 122.765 14.5737 122.974 14.7989C123.183 15.0241 123.338 15.2935 123.429 15.5873C123.52 15.881 123.544 16.1915 123.499 16.4958V20.5768H122.259V16.8082C122.259 15.7952 121.82 15.2913 120.903 15.2913C120.696 15.2816 120.488 15.3171 120.296 15.3953C120.103 15.4734 119.929 15.5924 119.787 15.7442C119.644 15.8959 119.536 16.0768 119.47 16.2744C119.404 16.472 119.381 16.6816 119.403 16.8889V20.5769H118.162V14.2728Z" fill="white"/>
<path d="M130.507 12.7032V14.3015H131.869V15.3494H130.507V18.591C130.507 19.2514 130.778 19.5405 131.396 19.5405C131.554 19.54 131.712 19.5304 131.869 19.5118V20.5481C131.646 20.5881 131.42 20.6094 131.194 20.6117C129.815 20.6117 129.266 20.125 129.266 18.9096V15.3494H128.268V14.3014H129.266V12.7032H130.507Z" fill="white"/>
<path d="M133.563 11.8118H134.792V15.2858H134.89C135.055 14.9228 135.328 14.6196 135.67 14.4175C136.013 14.2154 136.41 14.1243 136.806 14.1565C137.111 14.1399 137.415 14.1909 137.697 14.3057C137.979 14.4206 138.233 14.5965 138.439 14.821C138.646 15.0455 138.801 15.313 138.893 15.6044C138.985 15.8957 139.011 16.2039 138.971 16.5067V20.5769H137.729V16.8137C137.729 15.8067 137.262 15.2968 136.385 15.2968C136.172 15.2792 135.958 15.3086 135.757 15.3829C135.556 15.4572 135.374 15.5745 135.224 15.7268C135.073 15.879 134.957 16.0624 134.885 16.2642C134.812 16.466 134.784 16.6813 134.803 16.895V20.5768H133.563L133.563 11.8118Z" fill="white"/>
<path d="M146.202 18.8747C146.034 19.4508 145.669 19.9492 145.171 20.2826C144.673 20.616 144.074 20.7632 143.479 20.6985C143.065 20.7095 142.654 20.6299 142.273 20.4654C141.893 20.3008 141.553 20.0552 141.277 19.7456C141.001 19.4361 140.795 19.0699 140.674 18.6725C140.553 18.2752 140.52 17.8562 140.576 17.4446C140.521 17.0318 140.555 16.6119 140.676 16.2133C140.796 15.8148 141.001 15.4469 141.276 15.1346C141.551 14.8223 141.889 14.5729 142.268 14.4032C142.647 14.2335 143.058 14.1475 143.474 14.151C145.222 14.151 146.277 15.3494 146.277 17.329V17.7632H141.84V17.8329C141.82 18.0642 141.849 18.2971 141.925 18.5165C142 18.736 142.121 18.9372 142.278 19.1072C142.436 19.2773 142.627 19.4124 142.84 19.504C143.052 19.5955 143.282 19.6415 143.513 19.6389C143.81 19.6746 144.11 19.621 144.377 19.4849C144.643 19.3489 144.863 19.1364 145.008 18.8746L146.202 18.8747ZM141.84 16.843H145.014C145.029 16.6315 145.001 16.4189 144.93 16.2191C144.858 16.0193 144.746 15.8367 144.601 15.6829C144.455 15.5291 144.279 15.4075 144.084 15.3261C143.888 15.2446 143.678 15.2051 143.467 15.2099C143.252 15.2072 143.039 15.2476 142.841 15.3288C142.642 15.4099 142.462 15.5301 142.31 15.6823C142.158 15.8345 142.039 16.0156 141.958 16.2149C141.877 16.4143 141.837 16.6279 141.84 16.843H141.84Z" fill="white"/>
</g>
<path d="M1 31H166V46C166 50.9706 161.971 55 157 55H10C5.02944 55 1 50.9706 1 46V31Z" fill="url(#paint0_linear_409_2347)"/>
<path d="M44.4688 44.2969H46.4219C46.3594 45.0417 46.151 45.7057 45.7969 46.2891C45.4427 46.8672 44.9453 47.3229 44.3047 47.6562C43.6641 47.9896 42.8854 48.1562 41.9688 48.1562C41.2656 48.1562 40.6328 48.0312 40.0703 47.7812C39.5078 47.526 39.026 47.1667 38.625 46.7031C38.224 46.2344 37.9167 45.6693 37.7031 45.0078C37.4948 44.3464 37.3906 43.6068 37.3906 42.7891V41.8438C37.3906 41.026 37.4974 40.2865 37.7109 39.625C37.9297 38.9635 38.2422 38.3984 38.6484 37.9297C39.0547 37.4557 39.5417 37.0938 40.1094 36.8438C40.6823 36.5938 41.3255 36.4688 42.0391 36.4688C42.9453 36.4688 43.7109 36.6354 44.3359 36.9688C44.9609 37.3021 45.4453 37.763 45.7891 38.3516C46.138 38.9401 46.3516 39.6146 46.4297 40.375H44.4766C44.4245 39.8854 44.3099 39.4661 44.1328 39.1172C43.9609 38.7682 43.7057 38.5026 43.3672 38.3203C43.0286 38.1328 42.5859 38.0391 42.0391 38.0391C41.5911 38.0391 41.2005 38.1224 40.8672 38.2891C40.5339 38.4557 40.2552 38.7005 40.0312 39.0234C39.8073 39.3464 39.638 39.7448 39.5234 40.2188C39.4141 40.6875 39.3594 41.224 39.3594 41.8281V42.7891C39.3594 43.362 39.4089 43.8828 39.5078 44.3516C39.612 44.8151 39.7682 45.2135 39.9766 45.5469C40.1901 45.8802 40.4609 46.138 40.7891 46.3203C41.1172 46.5026 41.5104 46.5938 41.9688 46.5938C42.526 46.5938 42.9766 46.5052 43.3203 46.3281C43.6693 46.151 43.9323 45.8932 44.1094 45.5547C44.2917 45.2109 44.4115 44.7917 44.4688 44.2969ZM47.6562 43.8672V43.6875C47.6562 43.0781 47.7448 42.513 47.9219 41.9922C48.099 41.4661 48.3542 41.0104 48.6875 40.625C49.026 40.2344 49.4375 39.9323 49.9219 39.7188C50.4115 39.5 50.9635 39.3906 51.5781 39.3906C52.1979 39.3906 52.75 39.5 53.2344 39.7188C53.724 39.9323 54.138 40.2344 54.4766 40.625C54.8151 41.0104 55.0729 41.4661 55.25 41.9922C55.4271 42.513 55.5156 43.0781 55.5156 43.6875V43.8672C55.5156 44.4766 55.4271 45.0417 55.25 45.5625C55.0729 46.0833 54.8151 46.5391 54.4766 46.9297C54.138 47.3151 53.7266 47.6172 53.2422 47.8359C52.7578 48.0495 52.2083 48.1562 51.5938 48.1562C50.974 48.1562 50.4193 48.0495 49.9297 47.8359C49.4453 47.6172 49.0339 47.3151 48.6953 46.9297C48.3568 46.5391 48.099 46.0833 47.9219 45.5625C47.7448 45.0417 47.6562 44.4766 47.6562 43.8672ZM49.5391 43.6875V43.8672C49.5391 44.2474 49.5781 44.6068 49.6562 44.9453C49.7344 45.2839 49.8568 45.5807 50.0234 45.8359C50.1901 46.0911 50.4036 46.2917 50.6641 46.4375C50.9245 46.5833 51.2344 46.6562 51.5938 46.6562C51.9427 46.6562 52.2448 46.5833 52.5 46.4375C52.7604 46.2917 52.974 46.0911 53.1406 45.8359C53.3073 45.5807 53.4297 45.2839 53.5078 44.9453C53.5911 44.6068 53.6328 44.2474 53.6328 43.8672V43.6875C53.6328 43.3125 53.5911 42.9583 53.5078 42.625C53.4297 42.2865 53.3047 41.987 53.1328 41.7266C52.9661 41.4661 52.7526 41.263 52.4922 41.1172C52.237 40.9661 51.9323 40.8906 51.5781 40.8906C51.224 40.8906 50.9167 40.9661 50.6562 41.1172C50.401 41.263 50.1901 41.4661 50.0234 41.7266C49.8568 41.987 49.7344 42.2865 49.6562 42.625C49.5781 42.9583 49.5391 43.3125 49.5391 43.6875ZM58.9766 41.2656V48H57.0938V39.5469H58.8672L58.9766 41.2656ZM58.6719 43.4609L58.0312 43.4531C58.0312 42.8698 58.1042 42.3307 58.25 41.8359C58.3958 41.3411 58.6094 40.9115 58.8906 40.5469C59.1719 40.1771 59.5208 39.8932 59.9375 39.6953C60.3594 39.4922 60.8464 39.3906 61.3984 39.3906C61.7839 39.3906 62.1354 39.4479 62.4531 39.5625C62.776 39.6719 63.0547 39.8464 63.2891 40.0859C63.5286 40.3255 63.7109 40.6328 63.8359 41.0078C63.9661 41.3828 64.0312 41.8359 64.0312 42.3672V48H62.1484V42.5312C62.1484 42.1198 62.0859 41.7969 61.9609 41.5625C61.8411 41.3281 61.6667 41.1615 61.4375 41.0625C61.2135 40.9583 60.9453 40.9062 60.6328 40.9062C60.2786 40.9062 59.9766 40.974 59.7266 41.1094C59.4818 41.2448 59.2812 41.4297 59.125 41.6641C58.9688 41.8984 58.8542 42.1693 58.7812 42.4766C58.7083 42.7839 58.6719 43.112 58.6719 43.4609ZM63.9141 42.9609L63.0312 43.1562C63.0312 42.6458 63.1016 42.1641 63.2422 41.7109C63.388 41.2526 63.599 40.8516 63.875 40.5078C64.1562 40.1589 64.5026 39.8854 64.9141 39.6875C65.3255 39.4896 65.7969 39.3906 66.3281 39.3906C66.7604 39.3906 67.1458 39.4505 67.4844 39.5703C67.8281 39.6849 68.1198 39.8672 68.3594 40.1172C68.599 40.3672 68.7812 40.6927 68.9062 41.0938C69.0312 41.4896 69.0938 41.9688 69.0938 42.5312V48H67.2031V42.5234C67.2031 42.0964 67.1406 41.7656 67.0156 41.5312C66.8958 41.2969 66.724 41.1354 66.5 41.0469C66.276 40.9531 66.0078 40.9062 65.6953 40.9062C65.4036 40.9062 65.1458 40.9609 64.9219 41.0703C64.7031 41.1745 64.5182 41.3229 64.3672 41.5156C64.2161 41.7031 64.1016 41.9193 64.0234 42.1641C63.9505 42.4089 63.9141 42.6745 63.9141 42.9609ZM73.0469 39.5469V48H71.1562V39.5469H73.0469ZM71.0312 37.3281C71.0312 37.0417 71.125 36.8047 71.3125 36.6172C71.5052 36.4245 71.7708 36.3281 72.1094 36.3281C72.4427 36.3281 72.7057 36.4245 72.8984 36.6172C73.0911 36.8047 73.1875 37.0417 73.1875 37.3281C73.1875 37.6094 73.0911 37.8438 72.8984 38.0312C72.7057 38.2188 72.4427 38.3125 72.1094 38.3125C71.7708 38.3125 71.5052 38.2188 71.3125 38.0312C71.125 37.8438 71.0312 37.6094 71.0312 37.3281ZM76.9766 41.3516V48H75.0938V39.5469H76.8672L76.9766 41.3516ZM76.6406 43.4609L76.0312 43.4531C76.0365 42.8542 76.1198 42.3047 76.2812 41.8047C76.4479 41.3047 76.6771 40.875 76.9688 40.5156C77.2656 40.1562 77.6198 39.8802 78.0312 39.6875C78.4427 39.4896 78.901 39.3906 79.4062 39.3906C79.8125 39.3906 80.1797 39.4479 80.5078 39.5625C80.8411 39.6719 81.125 39.8516 81.3594 40.1016C81.599 40.3516 81.7812 40.6771 81.9062 41.0781C82.0312 41.474 82.0938 41.9609 82.0938 42.5391V48H80.2031V42.5312C80.2031 42.125 80.1432 41.8047 80.0234 41.5703C79.9089 41.3307 79.7396 41.1615 79.5156 41.0625C79.2969 40.9583 79.0234 40.9062 78.6953 40.9062C78.3724 40.9062 78.0833 40.974 77.8281 41.1094C77.5729 41.2448 77.3568 41.4297 77.1797 41.6641C77.0078 41.8984 76.875 42.1693 76.7812 42.4766C76.6875 42.7839 76.6406 43.112 76.6406 43.4609ZM89.4297 39.5469H91.1406V47.7656C91.1406 48.526 90.9792 49.1719 90.6562 49.7031C90.3333 50.2344 89.8828 50.638 89.3047 50.9141C88.7266 51.1953 88.0573 51.3359 87.2969 51.3359C86.974 51.3359 86.6146 51.2891 86.2188 51.1953C85.8281 51.1016 85.4479 50.9505 85.0781 50.7422C84.7135 50.5391 84.4089 50.2708 84.1641 49.9375L85.0469 48.8281C85.349 49.1875 85.6823 49.4505 86.0469 49.6172C86.4115 49.7839 86.7943 49.8672 87.1953 49.8672C87.6276 49.8672 87.9948 49.7865 88.2969 49.625C88.6042 49.4688 88.8411 49.237 89.0078 48.9297C89.1745 48.6224 89.2578 48.2474 89.2578 47.8047V41.4609L89.4297 39.5469ZM83.6875 43.8672V43.7031C83.6875 43.0625 83.7656 42.4792 83.9219 41.9531C84.0781 41.4219 84.3021 40.9661 84.5938 40.5859C84.8854 40.2005 85.2396 39.9062 85.6562 39.7031C86.0729 39.4948 86.5443 39.3906 87.0703 39.3906C87.6172 39.3906 88.0833 39.4896 88.4688 39.6875C88.8594 39.8854 89.1849 40.1693 89.4453 40.5391C89.7057 40.9036 89.9089 41.3411 90.0547 41.8516C90.2057 42.3568 90.3177 42.9193 90.3906 43.5391V44.0625C90.3229 44.6667 90.2083 45.2188 90.0469 45.7188C89.8854 46.2188 89.6719 46.651 89.4062 47.0156C89.1406 47.3802 88.8125 47.6615 88.4219 47.8594C88.0365 48.0573 87.5807 48.1562 87.0547 48.1562C86.5391 48.1562 86.0729 48.0495 85.6562 47.8359C85.2448 47.6224 84.8906 47.3229 84.5938 46.9375C84.3021 46.5521 84.0781 46.099 83.9219 45.5781C83.7656 45.0521 83.6875 44.4818 83.6875 43.8672ZM85.5703 43.7031V43.8672C85.5703 44.2526 85.6068 44.612 85.6797 44.9453C85.7578 45.2786 85.875 45.5729 86.0312 45.8281C86.1927 46.0781 86.3958 46.276 86.6406 46.4219C86.8906 46.5625 87.1849 46.6328 87.5234 46.6328C87.9661 46.6328 88.3281 46.5391 88.6094 46.3516C88.8958 46.1641 89.1146 45.9115 89.2656 45.5938C89.4219 45.2708 89.5312 44.9115 89.5938 44.5156V43.1016C89.5625 42.7943 89.4974 42.5078 89.3984 42.2422C89.3047 41.9766 89.1771 41.7448 89.0156 41.5469C88.8542 41.3438 88.651 41.1875 88.4062 41.0781C88.1615 40.9635 87.8724 40.9062 87.5391 40.9062C87.2005 40.9062 86.9062 40.9792 86.6562 41.125C86.4062 41.2708 86.2005 41.4714 86.0391 41.7266C85.8828 41.9818 85.7656 42.2786 85.6875 42.6172C85.6094 42.9557 85.5703 43.3177 85.5703 43.7031ZM101.82 45.7109C101.82 45.5234 101.773 45.3542 101.68 45.2031C101.586 45.0469 101.406 44.9062 101.141 44.7812C100.88 44.6562 100.495 44.5417 99.9844 44.4375C99.5365 44.3385 99.125 44.2214 98.75 44.0859C98.3802 43.9453 98.0625 43.776 97.7969 43.5781C97.5312 43.3802 97.3255 43.1458 97.1797 42.875C97.0339 42.6042 96.9609 42.2917 96.9609 41.9375C96.9609 41.5938 97.0365 41.2682 97.1875 40.9609C97.3385 40.6536 97.5547 40.3828 97.8359 40.1484C98.1172 39.9141 98.4583 39.7292 98.8594 39.5938C99.2656 39.4583 99.7188 39.3906 100.219 39.3906C100.927 39.3906 101.534 39.5104 102.039 39.75C102.549 39.9844 102.94 40.3047 103.211 40.7109C103.482 41.112 103.617 41.5651 103.617 42.0703H101.734C101.734 41.8464 101.677 41.638 101.562 41.4453C101.453 41.2474 101.286 41.0885 101.062 40.9688C100.839 40.8438 100.557 40.7812 100.219 40.7812C99.8958 40.7812 99.6276 40.8333 99.4141 40.9375C99.2057 41.0365 99.0495 41.1667 98.9453 41.3281C98.8464 41.4896 98.7969 41.6667 98.7969 41.8594C98.7969 42 98.8229 42.1276 98.875 42.2422C98.9323 42.3516 99.026 42.4531 99.1562 42.5469C99.2865 42.6354 99.4635 42.7188 99.6875 42.7969C99.9167 42.875 100.203 42.9505 100.547 43.0234C101.193 43.1589 101.747 43.3333 102.211 43.5469C102.68 43.7552 103.039 44.026 103.289 44.3594C103.539 44.6875 103.664 45.1042 103.664 45.6094C103.664 45.9844 103.583 46.3281 103.422 46.6406C103.266 46.9479 103.036 47.2161 102.734 47.4453C102.432 47.6693 102.07 47.8438 101.648 47.9688C101.232 48.0938 100.763 48.1562 100.242 48.1562C99.4766 48.1562 98.8281 48.0208 98.2969 47.75C97.7656 47.474 97.362 47.1224 97.0859 46.6953C96.8151 46.263 96.6797 45.8151 96.6797 45.3516H98.5C98.5208 45.7005 98.6172 45.9792 98.7891 46.1875C98.9661 46.3906 99.1849 46.5391 99.4453 46.6328C99.7109 46.7214 99.9844 46.7656 100.266 46.7656C100.604 46.7656 100.888 46.7214 101.117 46.6328C101.346 46.5391 101.521 46.4141 101.641 46.2578C101.76 46.0964 101.82 45.9141 101.82 45.7109ZM104.953 43.8672V43.6875C104.953 43.0781 105.042 42.513 105.219 41.9922C105.396 41.4661 105.651 41.0104 105.984 40.625C106.323 40.2344 106.734 39.9323 107.219 39.7188C107.708 39.5 108.26 39.3906 108.875 39.3906C109.495 39.3906 110.047 39.5 110.531 39.7188C111.021 39.9323 111.435 40.2344 111.773 40.625C112.112 41.0104 112.37 41.4661 112.547 41.9922C112.724 42.513 112.812 43.0781 112.812 43.6875V43.8672C112.812 44.4766 112.724 45.0417 112.547 45.5625C112.37 46.0833 112.112 46.5391 111.773 46.9297C111.435 47.3151 111.023 47.6172 110.539 47.8359C110.055 48.0495 109.505 48.1562 108.891 48.1562C108.271 48.1562 107.716 48.0495 107.227 47.8359C106.742 47.6172 106.331 47.3151 105.992 46.9297C105.654 46.5391 105.396 46.0833 105.219 45.5625C105.042 45.0417 104.953 44.4766 104.953 43.8672ZM106.836 43.6875V43.8672C106.836 44.2474 106.875 44.6068 106.953 44.9453C107.031 45.2839 107.154 45.5807 107.32 45.8359C107.487 46.0911 107.701 46.2917 107.961 46.4375C108.221 46.5833 108.531 46.6562 108.891 46.6562C109.24 46.6562 109.542 46.5833 109.797 46.4375C110.057 46.2917 110.271 46.0911 110.438 45.8359C110.604 45.5807 110.727 45.2839 110.805 44.9453C110.888 44.6068 110.93 44.2474 110.93 43.8672V43.6875C110.93 43.3125 110.888 42.9583 110.805 42.625C110.727 42.2865 110.602 41.987 110.43 41.7266C110.263 41.4661 110.049 41.263 109.789 41.1172C109.534 40.9661 109.229 40.8906 108.875 40.8906C108.521 40.8906 108.214 40.9661 107.953 41.1172C107.698 41.263 107.487 41.4661 107.32 41.7266C107.154 41.987 107.031 42.2865 106.953 42.625C106.875 42.9583 106.836 43.3125 106.836 43.6875ZM114.031 43.8672V43.6875C114.031 43.0781 114.12 42.513 114.297 41.9922C114.474 41.4661 114.729 41.0104 115.062 40.625C115.401 40.2344 115.812 39.9323 116.297 39.7188C116.786 39.5 117.339 39.3906 117.953 39.3906C118.573 39.3906 119.125 39.5 119.609 39.7188C120.099 39.9323 120.513 40.2344 120.852 40.625C121.19 41.0104 121.448 41.4661 121.625 41.9922C121.802 42.513 121.891 43.0781 121.891 43.6875V43.8672C121.891 44.4766 121.802 45.0417 121.625 45.5625C121.448 46.0833 121.19 46.5391 120.852 46.9297C120.513 47.3151 120.102 47.6172 119.617 47.8359C119.133 48.0495 118.583 48.1562 117.969 48.1562C117.349 48.1562 116.794 48.0495 116.305 47.8359C115.82 47.6172 115.409 47.3151 115.07 46.9297C114.732 46.5391 114.474 46.0833 114.297 45.5625C114.12 45.0417 114.031 44.4766 114.031 43.8672ZM115.914 43.6875V43.8672C115.914 44.2474 115.953 44.6068 116.031 44.9453C116.109 45.2839 116.232 45.5807 116.398 45.8359C116.565 46.0911 116.779 46.2917 117.039 46.4375C117.299 46.5833 117.609 46.6562 117.969 46.6562C118.318 46.6562 118.62 46.5833 118.875 46.4375C119.135 46.2917 119.349 46.0911 119.516 45.8359C119.682 45.5807 119.805 45.2839 119.883 44.9453C119.966 44.6068 120.008 44.2474 120.008 43.8672V43.6875C120.008 43.3125 119.966 42.9583 119.883 42.625C119.805 42.2865 119.68 41.987 119.508 41.7266C119.341 41.4661 119.128 41.263 118.867 41.1172C118.612 40.9661 118.307 40.8906 117.953 40.8906C117.599 40.8906 117.292 40.9661 117.031 41.1172C116.776 41.263 116.565 41.4661 116.398 41.7266C116.232 41.987 116.109 42.2865 116.031 42.625C115.953 42.9583 115.914 43.3125 115.914 43.6875ZM125.336 41.3516V48H123.453V39.5469H125.227L125.336 41.3516ZM125 43.4609L124.391 43.4531C124.396 42.8542 124.479 42.3047 124.641 41.8047C124.807 41.3047 125.036 40.875 125.328 40.5156C125.625 40.1562 125.979 39.8802 126.391 39.6875C126.802 39.4896 127.26 39.3906 127.766 39.3906C128.172 39.3906 128.539 39.4479 128.867 39.5625C129.201 39.6719 129.484 39.8516 129.719 40.1016C129.958 40.3516 130.141 40.6771 130.266 41.0781C130.391 41.474 130.453 41.9609 130.453 42.5391V48H128.562V42.5312C128.562 42.125 128.503 41.8047 128.383 41.5703C128.268 41.3307 128.099 41.1615 127.875 41.0625C127.656 40.9583 127.383 40.9062 127.055 40.9062C126.732 40.9062 126.443 40.974 126.188 41.1094C125.932 41.2448 125.716 41.4297 125.539 41.6641C125.367 41.8984 125.234 42.1693 125.141 42.4766C125.047 42.7839 125 43.112 125 43.4609Z" fill="white"/>
<defs>
<linearGradient id="paint0_linear_409_2347" x1="1" y1="43" x2="166" y2="43" gradientUnits="userSpaceOnUse">
<stop stop-color="#9EE1EC"/>
<stop offset="1" stop-color="#39E581"/>
</linearGradient>
<clipPath id="clip0_409_2347">
<rect width="167" height="56" fill="white"/>
</clipPath>
</defs>
</svg>
