<svg width="24" height="24" viewBox="0 0 24 24" fill="none" xmlns="http://www.w3.org/2000/svg">
<g clip-path="url(#clip0_409_1879)">
<path d="M12 0C5.37258 0 0 5.37258 0 12C0 18.6274 5.37258 24 12 24C18.6274 24 24 18.6274 24 12C24 5.37258 18.6274 0 12 0ZM18.0759 10.8929C16.8017 10.8929 15.5618 10.4794 14.6072 9.77962L14.5996 14.5374C14.5988 15.419 14.3292 16.2794 13.8267 17.0038C13.3242 17.7282 12.6127 18.2821 11.7872 18.5916C10.9617 18.9011 10.0615 18.9515 9.20663 18.7361C8.35176 18.5207 7.58291 18.0496 7.00269 17.3859C6.42247 16.7221 6.05848 15.8972 5.95928 15.0212C5.86008 14.1452 6.03039 13.2598 6.44749 12.4831C6.86459 11.7064 7.50863 11.0754 8.29369 10.6743C9.07874 10.2731 9.96746 10.1209 10.8412 10.238V12.5745C10.4291 12.4527 9.98901 12.4638 9.58348 12.6062C9.17796 12.7486 8.82756 13.0151 8.58198 13.3678C8.33641 13.7205 8.20812 14.1416 8.21532 14.5713C8.22252 15.0011 8.36483 15.4176 8.62208 15.7619C8.87933 16.1062 9.23846 16.3608 9.64852 16.4895C10.0586 16.6183 10.4988 16.6146 10.9066 16.4791C11.3145 16.3436 11.6694 16.0831 11.9209 15.7346C12.1724 15.3861 12.3078 14.9672 12.3079 14.5374V5.12498H14.7114C14.7114 5.5668 14.7984 6.00429 14.9675 6.41248C15.1366 6.82067 15.3844 7.19155 15.6968 7.50396C16.0092 7.81637 16.3801 8.06419 16.7883 8.23326C17.1965 8.40233 17.634 8.48935 18.0758 8.48934L18.0759 10.8929Z" fill="#747474"/>
</g>
<defs>
<clipPath id="clip0_409_1879">
<rect width="24" height="24" fill="white"/>
</clipPath>
</defs>
</svg>
