<svg width="25" height="20" viewBox="0 0 25 20" fill="none" xmlns="http://www.w3.org/2000/svg">
<path d="M23.4531 2.268C23.0759 2.43525 22.6881 2.57625 22.2921 2.691C22.7641 2.15764 23.1199 1.53187 23.3369 0.8535C23.3606 0.778746 23.3611 0.698542 23.3382 0.623518C23.3154 0.548494 23.2702 0.482189 23.2088 0.433391C23.1474 0.384593 23.0726 0.355604 22.9944 0.350266C22.9161 0.344928 22.8381 0.363493 22.7706 0.4035C21.9332 0.900635 21.0217 1.26068 20.0706 1.47C19.1055 0.529285 17.8116 0.00193976 16.4639 0C15.7313 0.00079506 15.0073 0.157641 14.3401 0.460096C13.6728 0.762551 13.0777 1.20368 12.5942 1.7541C12.1108 2.30452 11.7502 2.95162 11.5363 3.65231C11.3225 4.35299 11.2604 5.09119 11.3541 5.81775C9.60099 5.66169 7.8968 5.15633 6.34198 4.33145C4.78716 3.50658 3.41314 2.37886 2.3009 1.01475C2.26134 0.966261 2.21061 0.928089 2.15306 0.903505C2.09551 0.878921 2.03286 0.86866 1.97048 0.8736C1.90809 0.878541 1.84784 0.898536 1.79488 0.931872C1.74192 0.965207 1.69783 1.01089 1.6664 1.065C1.2091 1.85171 0.96843 2.74554 0.968896 3.6555C0.968896 4.89675 1.4114 6.07425 2.1944 6.9945C1.95619 6.91211 1.72558 6.80922 1.50515 6.687C1.44684 6.65452 1.38112 6.63767 1.31438 6.63809C1.24763 6.63851 1.18213 6.65618 1.12424 6.68939C1.06635 6.72261 1.01802 6.77023 0.983971 6.82763C0.949918 6.88503 0.93129 6.95027 0.929896 7.017V7.08525C0.929896 8.93775 1.9274 10.6065 3.4514 11.5162C3.32011 11.5031 3.18948 11.4841 3.0599 11.4593C2.994 11.4467 2.92598 11.4515 2.8625 11.4732C2.79902 11.4948 2.74226 11.5326 2.69779 11.5829C2.65332 11.6331 2.62267 11.694 2.60884 11.7596C2.59501 11.8253 2.59847 11.8934 2.6189 11.9573C2.89258 12.8118 3.38478 13.5801 4.04675 14.1858C4.70872 14.7916 5.51747 15.214 6.3929 15.411C4.93272 16.3258 3.24318 16.8079 1.52015 16.8015C1.15565 16.8015 0.788146 16.7797 0.428896 16.7377C0.342434 16.7285 0.255381 16.7486 0.181719 16.7948C0.108057 16.841 0.0520624 16.9107 0.0227295 16.9925C-0.00660346 17.0744 -0.00757203 17.1637 0.0199793 17.2462C0.0475307 17.3286 0.102003 17.3995 0.174646 17.4473C2.41619 18.8866 5.02427 19.6512 7.68815 19.65C12.9336 19.65 16.2156 17.1765 18.0441 15.1012C20.3249 12.5138 21.6329 9.08925 21.6329 5.70525C21.6329 5.5635 21.6306 5.42025 21.6261 5.2785C22.5265 4.60028 23.306 3.77494 23.9316 2.83725C23.9784 2.76755 24.0012 2.68455 23.9967 2.60075C23.9921 2.51696 23.9605 2.4369 23.9065 2.37266C23.8525 2.30842 23.7791 2.26348 23.6973 2.2446C23.6155 2.22572 23.5298 2.23393 23.4531 2.268Z" fill="#747474"/>
</svg>
