<svg width="258" height="58" viewBox="0 0 258 58" fill="none" xmlns="http://www.w3.org/2000/svg">
<path d="M15.399 31.1175L-0.688004 0.913849H9.93771L19.9698 21.1687L29.7645 0.913849H40.3902L24.0064 31.1175V44.7597H15.399V31.1175ZM35.7794 31.4153C35.7794 28.7543 36.3927 26.3714 37.6196 24.2666C38.8859 22.1617 40.647 20.5134 42.9028 19.322C45.1585 18.0907 47.7507 17.4752 50.6791 17.4752C53.6472 17.4752 56.2195 18.0907 58.3961 19.322C60.5728 20.5134 62.2349 22.1617 63.3825 24.2666C64.5697 26.3714 65.1634 28.7543 65.1634 31.4153C65.1634 34.0764 64.5697 36.4791 63.3825 38.6237C62.2349 40.7285 60.5728 42.3966 58.3961 43.6278C56.2195 44.8591 53.6076 45.4746 50.5604 45.4746C47.7111 45.4746 45.1585 44.9187 42.9028 43.8066C40.6867 42.6944 38.9453 41.086 37.679 38.9811C36.4127 36.8763 35.7794 34.3542 35.7794 31.4153ZM44.1494 31.4749C44.1494 33.5402 44.743 35.2678 45.9302 36.6578C47.1174 38.0082 48.6212 38.6833 50.4417 38.6833C52.3809 38.6833 53.9243 38.0082 55.0719 36.6578C56.2195 35.2678 56.7934 33.5402 56.7934 31.4749C56.7934 29.4096 56.2195 27.702 55.0719 26.3516C53.9243 24.9617 52.3809 24.2666 50.4417 24.2666C48.6212 24.2666 47.1174 24.9617 45.9302 26.3516C44.743 27.702 44.1494 29.4096 44.1494 31.4749ZM78.8931 46.0108C76.5581 46.0108 74.5991 45.2959 73.0163 43.8661C71.4333 42.3966 70.6022 40.5103 70.5232 38.2067V18.7262H78.8338V35.1089C78.9128 36.2605 79.2096 37.1939 79.7242 37.9088C80.2385 38.5839 81.1092 38.9216 82.3361 38.9216C84.196 38.9216 85.6603 38.028 86.7288 36.2408C87.7974 34.4138 88.3316 32.1104 88.3316 29.3303V18.7262H96.6422V44.7597H89.1033L88.5097 40.5896C87.639 42.2179 86.3924 43.5285 84.7699 44.5215C83.1472 45.5144 81.1883 46.0108 78.8931 46.0108ZM108.039 25.5176C106.614 25.5176 105.367 25.0012 104.299 23.9687C103.23 22.9362 102.696 21.546 102.696 19.7986V16.2242H108.929V17.0582C108.929 17.8922 109.068 18.3886 109.345 18.5475C109.661 18.6667 110.196 18.7262 110.947 18.7262H127.39L114.212 37.9684H127.212V44.7597H100.915L114.093 25.5176H108.039ZM144.752 45.4746C142.337 45.4746 140.141 44.998 138.162 44.0449C136.223 43.0519 134.68 41.5428 133.532 39.5173C132.384 37.4918 131.811 34.9104 131.811 31.7728C131.811 28.8339 132.404 26.292 133.592 24.1474C134.779 22.0028 136.342 20.3545 138.281 19.2028C140.22 18.0114 142.278 17.4156 144.455 17.4156C147.027 17.4156 148.966 17.8326 150.272 18.6667C151.617 19.5007 152.686 20.4141 153.478 21.407L154.012 18.7262H161.729V44.7597H153.418V41.5428C153.022 41.94 152.429 42.4562 151.637 43.0917C150.885 43.7272 149.936 44.2832 148.788 44.7597C147.64 45.2363 146.295 45.4746 144.752 45.4746ZM147.126 38.6833C150.015 38.6833 152.112 37.3727 153.418 34.7514V28.3771C152.943 27.1063 152.112 26.0936 150.925 25.3389C149.777 24.5842 148.412 24.207 146.829 24.207C145.048 24.207 143.505 24.8821 142.199 26.2325C140.893 27.5431 140.24 29.2509 140.24 31.3558C140.24 32.7457 140.557 33.9968 141.19 35.1089C141.823 36.221 142.654 37.0946 143.683 37.7301C144.752 38.3656 145.899 38.6833 147.126 38.6833ZM171.182 57.2701L177.415 43.3896L165.424 18.7262H174.744L181.571 34.0961L188.458 18.7262H195.938L179.196 57.2701H171.182ZM196.45 31.4153C196.45 28.7543 197.063 26.3714 198.29 24.2666C199.556 22.1617 201.318 20.5134 203.574 19.322C205.829 18.0907 208.42 17.4752 211.35 17.4752C214.318 17.4752 216.89 18.0907 219.067 19.322C221.242 20.5134 222.904 22.1617 224.053 24.2666C225.241 26.3714 225.834 28.7543 225.834 31.4153C225.834 34.0764 225.241 36.4791 224.053 38.6237C222.904 40.7285 221.242 42.3966 219.067 43.6278C216.89 44.8591 214.278 45.4746 211.231 45.4746C208.382 45.4746 205.829 44.9187 203.574 43.8066C201.356 42.6944 199.615 41.086 198.35 38.9811C197.082 36.8763 196.45 34.3542 196.45 31.4153ZM204.82 31.4749C204.82 33.5402 205.414 35.2678 206.601 36.6578C207.788 38.0082 209.291 38.6833 211.113 38.6833C213.05 38.6833 214.593 38.0082 215.743 36.6578C216.89 35.2678 217.464 33.5402 217.464 31.4749C217.464 29.4096 216.89 27.702 215.743 26.3516C214.593 24.9617 213.05 24.2666 211.113 24.2666C209.291 24.2666 207.788 24.9617 206.601 26.3516C205.414 27.702 204.82 29.4096 204.82 31.4749ZM239.563 46.0108C237.229 46.0108 235.27 45.2959 233.686 43.8661C232.102 42.3966 231.271 40.5103 231.193 38.2067V18.7262H239.504V35.1089C239.582 36.2605 239.879 37.1939 240.394 37.9088C240.909 38.5839 241.778 38.9216 243.006 38.9216C244.865 38.9216 246.33 38.028 247.399 36.2408C248.467 34.4138 249.001 32.1104 249.001 29.3303V18.7262H257.312V44.7597H249.773L249.179 40.5896C248.308 42.2179 247.061 43.5285 245.44 44.5215C243.818 45.5144 241.859 46.0108 239.563 46.0108Z" fill="url(#paint0_linear_409_1989)"/>
<defs>
<linearGradient id="paint0_linear_409_1989" x1="-2.752" y1="26.9323" x2="43.0394" y2="128.605" gradientUnits="userSpaceOnUse">
<stop stop-color="#0FEFFD" stop-opacity="0.6"/>
<stop stop-color="#0FEFFD"/>
<stop offset="0.515718" stop-color="#FFD400"/>
<stop offset="1" stop-color="#0FEFFD" stop-opacity="0.6"/>
</linearGradient>
</defs>
</svg>
